<?xml version="1.0" encoding="UTF-8" standalone="no"?>
<!-- Generator: Adobe Illustrator 26.0.1, SVG Export Plug-In . SVG Version: 6.00 Build 0)  -->

<svg
   version="1.1"
   id="Layer_1"
   x="0px"
   y="0px"
   viewBox="0 0 1000 1000"
   style="enable-background:new 0 0 1000 1000;"
   xml:space="preserve"
   sodipodi:docname="discord.svg"
   inkscape:version="1.4 (e7c3feb100, 2024-10-09)"
   xmlns:inkscape="http://www.inkscape.org/namespaces/inkscape"
   xmlns:sodipodi="http://sodipodi.sourceforge.net/DTD/sodipodi-0.dtd"
   xmlns="http://www.w3.org/2000/svg"
   xmlns:svg="http://www.w3.org/2000/svg"><defs
   id="defs93" /><sodipodi:namedview
   id="namedview93"
   pagecolor="#ffffff"
   bordercolor="#000000"
   borderopacity="0.25"
   inkscape:showpageshadow="2"
   inkscape:pageopacity="0.0"
   inkscape:pagecheckerboard="0"
   inkscape:deskcolor="#d1d1d1"
   inkscape:zoom="0.757"
   inkscape:cx="500"
   inkscape:cy="500"
   inkscape:window-width="1920"
   inkscape:window-height="1008"
   inkscape:window-x="0"
   inkscape:window-y="0"
   inkscape:window-maximized="1"
   inkscape:current-layer="Layer_1" />

<g
   id="g92">
</g>
<g
   id="g93"
   style="fill:#eeeeee;fill-opacity:1">
	<path
   style="fill:#eeeeee;fill-opacity:1"
   d="M777.234,245.327c-50.989-23.396-105.668-40.633-162.837-50.506   c-1.041-0.191-2.081,0.286-2.617,1.238c-7.032,12.507-14.821,28.824-20.276,41.649c-61.49-9.206-122.664-9.206-182.892,0   c-5.456-13.11-13.528-29.141-20.592-41.649c-0.536-0.921-1.576-1.397-2.617-1.238c-57.138,9.841-111.816,27.078-162.837,50.506   c-0.442,0.19-0.82,0.508-1.072,0.921C117.78,401.193,89.368,552.33,103.306,701.593c0.063,0.73,0.473,1.429,1.041,1.873   c68.427,50.251,134.71,80.758,199.763,100.979c1.041,0.318,2.144-0.063,2.807-0.921c15.388-21.014,29.105-43.172,40.866-66.473   c0.694-1.365,0.032-2.984-1.387-3.523c-21.758-8.254-42.475-18.317-62.404-29.744c-1.576-0.921-1.703-3.175-0.252-4.255   c4.194-3.143,8.389-6.412,12.393-9.714c0.725-0.603,1.734-0.73,2.586-0.349c130.925,59.776,272.667,59.776,402.047,0   c0.852-0.412,1.861-0.285,2.617,0.318c4.006,3.301,8.199,6.603,12.425,9.745c1.45,1.079,1.356,3.334-0.221,4.255   c-19.929,11.65-40.647,21.491-62.436,29.713c-1.419,0.54-2.05,2.19-1.355,3.555c12.013,23.269,25.731,45.426,40.835,66.442   c0.631,0.889,1.766,1.27,2.807,0.952c65.368-20.221,131.651-50.728,200.078-100.979c0.599-0.444,0.978-1.111,1.041-1.841   c16.681-172.564-27.939-322.462-118.282-455.345C778.053,245.835,777.675,245.518,777.234,245.327z M367.334,610.708   c-39.417,0-71.896-36.188-71.896-80.631c0-44.443,31.849-80.631,71.896-80.631c40.362,0,72.526,36.506,71.895,80.631   C439.229,574.519,407.38,610.708,367.334,610.708z M633.158,610.708c-39.416,0-71.895-36.188-71.895-80.631   c0-44.443,31.848-80.631,71.895-80.631c40.363,0,72.526,36.506,71.896,80.631C705.055,574.519,673.521,610.708,633.158,610.708z"
   id="path92" />
</g>
</svg>
