<?xml version="1.0" encoding="UTF-8" standalone="no"?>
<!-- Created with Inkscape (http://www.inkscape.org/) -->

<svg
   xmlns:dc="http://purl.org/dc/elements/1.1/"
   xmlns:cc="http://creativecommons.org/ns#"
   xmlns:rdf="http://www.w3.org/1999/02/22-rdf-syntax-ns#"
   xmlns:svg="http://www.w3.org/2000/svg"
   xmlns="http://www.w3.org/2000/svg"
   xmlns:sodipodi="http://sodipodi.sourceforge.net/DTD/sodipodi-0.dtd"
   xmlns:inkscape="http://www.inkscape.org/namespaces/inkscape"
   width="250"
   height="250"
   viewBox="0 0 35.718749 35.718749"
   version="1.1"
   id="svg8"
   sodipodi:docname="rhlug-final-cropped02.svg"
   inkscape:version="0.92.4 5da689c313, 2019-01-14">
  <defs
     id="defs2" />
  <sodipodi:namedview
     id="base"
     pagecolor="#ffffff"
     bordercolor="#666666"
     borderopacity="1.0"
     inkscape:pageopacity="0.0"
     inkscape:pageshadow="2"
     inkscape:zoom="3.8814172"
     inkscape:cx="-16.22272"
     inkscape:cy="74.975549"
     inkscape:document-units="mm"
     inkscape:current-layer="layer2"
     showgrid="false"
     inkscape:window-width="1920"
     inkscape:window-height="998"
     inkscape:window-x="0"
     inkscape:window-y="0"
     inkscape:window-maximized="1"
     height="210mm"
     units="px" />
  <metadata
     id="metadata5">
    <rdf:RDF>
      <cc:Work
         rdf:about="">
        <dc:format>image/svg+xml</dc:format>
        <dc:type
           rdf:resource="http://purl.org/dc/dcmitype/StillImage" />
        <dc:title />
      </cc:Work>
    </rdf:RDF>
  </metadata>
  <g
     inkscape:groupmode="layer"
     id="layer3"
     inkscape:label="top transparent full circle"
     style="display:inline;opacity:0"
     transform="translate(0,-261.28126)">
    <path
       inkscape:connector-curvature="0"
       style="fill:#000000;fill-opacity:1;stroke-width:0.0489727"
       d="m 18.006095,261.80282 c -1.490078,-0.009 -2.980595,0.18383 -4.422129,0.56203 -5.4344627,1.38476 -10.0641727,5.55799 -11.9425559,10.85128 -1.00170681,2.62813 -1.14819968,5.50648 -0.8628595,8.28051 0.6970958,5.14849 3.8445496,9.88535 8.3309464,12.50934 2.398029,1.36574 5.112085,2.3073 7.89152,2.35622 2.312307,0.12593 4.656406,-0.13292 6.827759,-0.96675 4.707706,-1.67351 8.612555,-5.4679 10.333307,-10.16835 1.97657,-5.16204 1.283026,-11.25399 -1.856969,-15.81156 -3.120671,-4.6974 -8.66341,-7.63477 -14.299019,-7.61272 z"
       id="path4987" />
  </g>
  <g
     style="display:inline"
     inkscape:label="top transparent partial circle"
     id="g5047"
     inkscape:groupmode="layer"
     transform="translate(0,-261.28126)">
    <path
       id="path5045"
       d="m 18.006095,261.80282 c -1.490078,-0.009 -2.980595,0.18383 -4.422129,0.56203 -5.4344627,1.38476 -10.0641727,5.55799 -11.9425559,10.85128 -1.00170681,2.62813 -1.14819968,5.50648 -0.8628595,8.28051 0.6970958,5.14849 3.8445496,9.88535 8.3309464,12.50934 2.398029,1.36574 5.112085,2.3073 7.89152,2.35622 2.312307,0.12593 4.656406,-0.13292 6.827759,-0.96675 4.707706,-1.67351 8.612555,-5.4679 10.333307,-10.16835 1.97657,-5.16204 1.283026,-11.25399 -1.856969,-15.81156 -3.120671,-4.6974 -8.66341,-7.63477 -14.299019,-7.61272 z"
       style="fill:#000000;fill-opacity:0;stroke:#9d1c31;stroke-width:0.37018937;stroke-miterlimit:4;stroke-dasharray:none;stroke-opacity:1"
       inkscape:connector-curvature="0" />
  </g>
  <g
     inkscape:groupmode="layer"
     id="layer4"
     inkscape:label="bottom circle"
     style="display:inline"
     transform="translate(0,-261.28126)">
    <path
       style="fill:#9d1c31;fill-opacity:1;stroke-width:0.0489727"
       d="m 17.946162,262.44966 c -1.706356,0 -2.89958,0.15561 -4.456539,0.58291 -2.140281,0.58732 -4.261186,1.67377 -6.0237152,3.08462 -0.6988685,0.55906 -1.9966214,1.85609 -2.5424609,2.54071 -1.654315,2.07579 -2.7779684,4.44689 -3.3297682,7.02768 -0.4562766,2.13478 -0.4562745,4.7224 0,6.85668 0.551801,2.58058 1.6754532,4.95229 3.3297682,7.02748 0.5482791,0.68803 1.846724,1.98519 2.5424609,2.53954 2.6921552,2.14809 5.8276682,3.37962 9.3049082,3.65548 0.296229,0.0215 0.969781,0.0325 1.496541,0.0213 3.755537,-0.0778 7.221045,-1.33408 10.158995,-3.6776 0.69572,-0.55473 1.994205,-1.85185 2.542469,-2.53938 0.858149,-1.07668 1.672767,-2.40318 2.20843,-3.59677 2.579506,-5.74648 1.73489,-12.36883 -2.20843,-17.31487 -0.548264,-0.68754 -1.846749,-1.98511 -2.542469,-2.53975 -1.803269,-1.43831 -3.854443,-2.48904 -6.023699,-3.08548 -1.553795,-0.42707 -2.749381,-0.58324 -4.456491,-0.58324 z"
       id="path4983"
       inkscape:connector-curvature="0" />
  </g>
  <g
     inkscape:groupmode="layer"
     id="layer2"
     inkscape:label="r"
     style="display:inline"
     transform="translate(0,-261.28126)">
    <path
       style="fill:#ffffff;fill-opacity:1;stroke-width:0.0489727"
       d="m 16.746275,265.68093 0.869309,0.0302 c 1.075262,0.0341 1.531741,0.0951 2.313162,0.28527 2.32802,0.57471 3.856519,1.91742 4.745341,4.16839 0.395183,1.0007 0.564807,1.89502 0.559794,2.95067 -0.0036,1.2577 -0.275256,2.43182 -0.82409,3.58977 -0.419728,0.8863 -1.156503,1.86472 -1.670554,2.2178 -0.113938,0.0802 -0.227411,0.1426 -0.251899,0.1426 -0.02488,0 -0.227182,-0.3031 -0.450363,-0.67324 -1.080759,-1.79382 -1.70135,-2.39589 -2.859921,-2.7756 -0.08123,-0.0233 -0.06944,-0.0493 0.09921,-0.23703 0.966528,-1.05027 1.211173,-2.44718 0.624287,-3.56357 -0.430483,-0.81945 -1.335486,-1.29099 -2.603661,-1.35589 l -0.550924,-0.0271 v -2.3759 z"
       id="path4981"
       inkscape:connector-curvature="0" />
    <path
       style="fill:#ffffff;fill-opacity:1;stroke-width:0.0489727"
       d="m 11.016432,265.6957 h 2.595615 2.595573 v 5.09309 c 0,4.81736 0.0028,5.09269 0.08556,5.09329 0.531163,0.009 1.845997,0.12024 2.192401,0.19012 0.929351,0.19179 1.613906,0.60224 2.116253,1.26928 0.348354,0.46246 1.048238,1.55142 2.177176,3.38841 0.950327,1.54623 3.368065,5.57009 3.405547,5.66757 0.01888,0.0474 -0.566148,0.0619 -2.961535,0.0619 h -2.98529 l -0.397448,-0.92528 c -1.342013,-3.1229 -2.084251,-4.56979 -2.535994,-4.94431 -0.349615,-0.28952 -0.881772,-0.36789 -1.18253,-0.17447 l -0.109998,0.075 v 3.01088 3.01009 h -2.465071 c -1.355704,0 -2.479658,-0.009 -2.497558,-0.0319 -0.0179,-0.0137 -0.03239,-1.41937 -0.03239,-3.11332 v -3.08043 l -0.832589,-2.17405 c -0.457896,-1.19519 -0.832488,-2.1852 -0.832488,-2.19997 0,-0.009 0.374592,-0.024 0.832488,-0.024 h 0.832543 v -5.09321 z"
       id="path4979"
       inkscape:connector-curvature="0" />
  </g>
  <g
     inkscape:label="lug"
     inkscape:groupmode="layer"
     id="layer1"
     style="display:inline"
     transform="translate(0,-261.28126)">
    <path
       style="fill:#000000;fill-opacity:0;stroke-width:0.0489727"
       d="m 17.946162,261.92137 c 1.445747,0 2.89154,0.17525 4.260603,0.52623 3.090443,0.79112 5.905379,2.42432 8.102404,4.69905 3.158925,3.27164 4.848922,7.44187 4.848922,11.96711 0,3.46011 -0.955676,6.63053 -2.863273,9.50121 -0.637691,0.95907 -1.176453,1.6286 -1.985649,2.4661 -2.702772,2.79869 -6.183551,4.54308 -10.183721,5.10178 -0.535558,0.0773 -3.047751,0.14071 -3.477082,0.0932 -0.09453,-0.009 -0.391785,-0.0415 -0.661125,-0.073 -4.406368,-0.47302 -8.642321,-2.80264 -11.4647533,-6.30489 -0.9202359,-1.14263 -1.9408996,-2.85834 -2.4951321,-4.19621 -0.8570703,-2.06839 -1.2931864,-4.28977 -1.2931864,-6.58695 0,-2.81102 0.6027812,-5.31444 1.8866043,-7.83563 2.2287224,-4.37622 6.2709691,-7.6027 11.0647295,-8.83034 1.369022,-0.35126 2.81481,-0.52652 4.260659,-0.52652 z"
       id="path4985"
       inkscape:connector-curvature="0" />
    <path
       style="fill:#ffffff;fill-opacity:1;stroke-width:0.0489727"
       d="m 24.018726,286.73003 c 0.527514,0.004 0.699394,0.0154 1.002249,0.1159 0.410141,0.12905 0.837409,0.33479 1.048708,0.5089 l 0.140791,0.11688 -0.429727,0.48743 c -0.236341,0.2679 -0.436605,0.49453 -0.444937,0.50523 -0.0048,0.009 -0.08481,-0.0391 -0.170737,-0.11386 -0.223723,-0.18828 -0.46901,-0.30251 -0.794539,-0.36964 -0.791916,-0.16362 -1.609014,0.27436 -1.902074,1.01917 -0.129115,0.32875 -0.1544,1.08155 -0.04672,1.40283 0.163674,0.48912 0.519803,0.85933 0.996579,1.03671 0.257826,0.0975 1.061909,0.1108 1.322828,0.018 l 0.183722,-0.0601 v -0.50873 -0.50827 l -0.526526,-0.009 -0.526406,-0.009 -0.01078,-0.57559 -0.01078,-0.57537 h 1.201418 1.20139 v 1.53588 1.536 l -0.28427,0.12924 c -0.156316,0.0694 -0.470395,0.17366 -0.697886,0.23035 -0.534112,0.13281 -1.55326,0.17049 -2.005202,0.0752 -1.211075,-0.2552 -2.07619,-1.07578 -2.353273,-2.23216 -0.09183,-0.38289 -0.07984,-1.18035 0.02399,-1.56694 0.219987,-0.82323 0.773746,-1.50468 1.505816,-1.85286 0.567857,-0.27018 0.841306,-0.32655 1.582811,-0.3257 z"
       id="path4977"
       inkscape:connector-curvature="0" />
    <path
       style="fill:#ffffff;fill-opacity:1;stroke-width:0.0489727"
       d="m 11.016432,286.85153 h 0.710089 0.710175 v 2.27786 2.27697 h 1.101872 1.101898 v 0.61177 0.61222 h -1.811979 -1.812055 v -2.88942 z"
       id="path4975"
       inkscape:connector-curvature="0" />
    <path
       style="fill:#ffffff;fill-opacity:1;stroke-width:0.0489727"
       d="m 15.03206,286.85153 h 0.710107 0.710081 l 9.68e-4,1.92269 c 9.55e-4,1.9141 9.55e-4,1.92282 0.115449,2.16696 0.190728,0.40546 0.459203,0.56335 0.961853,0.56335 0.46381,0 0.778943,-0.2007 0.964051,-0.61344 0.07864,-0.17458 0.08935,-0.39826 0.103745,-2.11687 l 0.01599,-1.92269 h 0.682095 0.682072 l -9.57e-4,1.99608 c -9.71e-4,1.16643 -0.02196,2.08448 -0.05077,2.21028 -0.187295,0.81262 -0.842582,1.4381 -1.722899,1.64544 h -7.2e-5 c -0.325582,0.0785 -1.009567,0.091 -1.335075,0.0218 -0.706808,-0.14087 -1.286096,-0.56518 -1.585835,-1.16082 -0.226939,-0.45028 -0.249152,-0.69585 -0.24988,-2.76849 z"
       id="path4973"
       inkscape:connector-curvature="0" />
    <path
       style="fill:#000000;stroke-width:0.0489727"
       d="m -0.786,297.28921 v 0.0948 c 0.00374,0 0.007922,0 0.0117354,0 -0.003891,-0.0318 -0.008062,-0.0616 -0.0117354,-0.0948 z"
       id="path3848"
       inkscape:connector-curvature="0" />
    <path
       style="fill:#9d1c31;fill-opacity:0;stroke-width:0.07692901"
       d="m 17.670985,262.58306 c -3.760642,-0.0146 -7.494105,1.45534 -10.3772532,3.85598 -1.5398752,1.36135 -2.9449995,2.91042 -3.8906651,4.7462 -1.4202447,2.58095 -2.1287278,5.52311 -1.988964,8.46118 0.042045,3.76257 1.5572582,7.48512 4.0256872,10.31902 1.3956317,1.51658 2.9738716,2.89448 4.8369201,3.80658 2.384766,1.23411 5.062148,1.97568 7.753648,1.8613 3.504843,0.0475 6.966288,-1.14809 9.780058,-3.21856 2.586451,-2.01027 4.715173,-4.69064 5.773139,-7.81192 1.765076,-4.90337 0.990987,-10.64025 -2.009796,-14.91112 -1.070401,-1.53584 -2.448749,-2.83649 -3.915822,-3.99105 -2.896995,-2.0512 -6.425555,-3.25337 -9.986952,-3.11761 z m 0.112301,3.01639 c 2.23976,0.0839 4.632431,0.8293 6.005512,2.70982 2.283776,3.01014 1.977831,7.60265 -0.574619,10.35556 -0.23025,0.20245 -0.481696,0.5168 -0.801632,0.50029 -0.879771,-1.20532 -1.518245,-2.74128 -3.005919,-3.3204 -0.2138,-0.0768 -0.55232,-0.23884 -0.274217,-0.46626 0.893912,-0.9802 1.329601,-2.57913 0.510749,-3.73523 -0.672742,-0.91849 -1.876148,-1.05919 -2.942554,-1.08681 -0.181959,-0.38462 -0.02593,-0.9411 -0.0779,-1.39145 0.02223,-1.19809 -0.04406,-2.41751 0.03265,-3.60349 0.369293,-0.0252 0.754116,0.0299 1.127606,0.0352 z m -4.154985,-0.0322 c 0.891257,0.0205 1.803005,-0.0418 2.681488,0.0309 0.05199,3.38291 0.03158,6.77737 0.05566,10.16527 1.424295,0.0867 3.108021,0.10736 4.117348,1.28506 1.548817,2.04781 2.780426,4.31517 4.137875,6.49003 0.531936,0.95361 1.204659,1.84811 1.617933,2.85847 -0.08566,0.27011 -0.512577,0.0854 -0.722684,0.15603 -1.769739,0.0359 -3.540039,0.0144 -5.310024,0.0223 -0.42533,-0.70521 -0.6807,-1.55212 -1.053726,-2.30661 -0.578309,-1.192 -1.049458,-2.4668 -1.883702,-3.50949 -0.288941,-0.29265 -0.755185,-0.41463 -1.133952,-0.23035 -0.03579,2.03331 0.01696,4.08849 -0.07289,6.1096 -1.67926,0.009 -3.371901,0.014 -5.053683,-0.0688 -0.182301,-0.3844 -0.02622,-0.94092 -0.07834,-1.39124 -0.01843,-1.61718 0.03635,-3.24787 -0.02819,-4.85634 -0.539229,-1.48592 -1.181731,-2.95409 -1.652503,-4.45236 0.521862,-0.16113 1.13164,-0.0256 1.681115,-0.076 0,-3.38272 0,-6.76579 0,-10.1484 0.375056,-0.19365 0.942499,-0.028 1.391067,-0.0852 0.435736,0 0.871466,0 1.307184,0 z m 10.387547,21.08832 c 0.787055,-0.009 1.690351,0.13195 2.23782,0.74197 0.02779,0.42286 -0.480084,0.66585 -0.679615,0.98984 -0.265577,0.46328 -0.627819,-0.14534 -0.973527,-0.20552 -0.909782,-0.39248 -2.114343,0.319 -2.093015,1.34345 -0.223344,0.89381 0.494107,1.82761 1.40247,1.88157 0.270392,0.009 0.626685,0.0435 0.84978,-0.11272 -0.0326,-0.24265 0.176018,-0.79819 -0.136505,-0.79016 -0.256779,-0.0465 -0.881348,0.15808 -0.846822,-0.29444 0.0067,-0.35529 -0.107467,-0.72835 -0.07236,-1.07947 0.857307,-0.0294 1.755515,-0.049 2.607454,0.009 0.03951,1.05941 0.0028,2.13015 0.01688,3.1939 -0.789528,0.46664 -1.798673,0.58103 -2.720763,0.53018 -1.66255,-0.0757 -3.072934,-1.68488 -2.869229,-3.35038 0.04367,-1.5407 1.427818,-2.94872 2.998193,-2.85183 0.09332,-0.009 0.186132,-0.009 0.279253,-0.009 z m -12.271771,0.0663 c 0.510546,-0.0783 1.014556,-0.0244 0.814105,0.62133 0,1.30487 0,2.61013 0,3.91496 0.722326,0.0352 1.468172,-0.0127 2.176531,0.0734 0.0241,0.45279 0.08358,0.93709 0.02958,1.38306 -1.244057,0.0405 -2.501947,0.009 -3.751295,0.0153 -0.193465,-0.37524 -0.02822,-0.94235 -0.08305,-1.39142 0.02209,-1.53236 -0.04351,-3.08505 0.0326,-4.60453 0.253573,-0.0385 0.522811,-0.009 0.781169,-0.0137 z m 3.994927,0 c 0.510414,-0.0771 1.021191,-0.0299 0.819446,0.62133 0.04903,1.16543 -0.106216,2.35779 0.117021,3.50442 0.240977,0.75369 1.559925,0.69745 1.708536,-0.0972 0.187015,-1.3237 0.0029,-2.69225 0.118306,-4.01332 0.521402,-0.0129 1.075917,-0.0476 1.589064,0.0123 -0.0061,1.47544 0.03995,2.97082 -0.09247,4.44471 -0.277482,1.01576 -1.329447,1.69693 -2.366584,1.65951 -1.098579,0.17272 -2.28637,-0.55167 -2.596317,-1.62056 -0.148752,-1.47064 -0.06828,-2.95588 -0.116275,-4.43215 0.146955,-0.18855 0.59038,-0.0322 0.819321,-0.0857 z"
       id="path4939"
       inkscape:connector-curvature="0" />
  </g>
</svg>
