<?xml version="1.0" encoding="UTF-8" standalone="no"?>
<!-- Created with Inkscape (http://www.inkscape.org/) -->

<svg
   width="810.90863"
   height="297.8486"
   viewBox="0 0 214.55291 78.805775"
   version="1.1"
   id="svg1"
   xml:space="preserve"
   inkscape:version="1.4 (e7c3feb100, 2024-10-09)"
   sodipodi:docname="whitelug.svg"
   inkscape:export-filename="redlug.png"
   inkscape:export-xdpi="96"
   inkscape:export-ydpi="96"
   xmlns:inkscape="http://www.inkscape.org/namespaces/inkscape"
   xmlns:sodipodi="http://sodipodi.sourceforge.net/DTD/sodipodi-0.dtd"
   xmlns="http://www.w3.org/2000/svg"
   xmlns:svg="http://www.w3.org/2000/svg"><sodipodi:namedview
     id="namedview1"
     pagecolor="#ffffff"
     bordercolor="#000000"
     borderopacity="0.25"
     inkscape:showpageshadow="2"
     inkscape:pageopacity="0.0"
     inkscape:pagecheckerboard="0"
     inkscape:deskcolor="#d1d1d1"
     inkscape:document-units="mm"
     inkscape:zoom="0.578904"
     inkscape:cx="506.99252"
     inkscape:cy="227.15338"
     inkscape:window-width="1920"
     inkscape:window-height="1008"
     inkscape:window-x="0"
     inkscape:window-y="0"
     inkscape:window-maximized="1"
     inkscape:current-layer="Warstwa_x0020_1" /><defs
     id="defs1"><style
       type="text/css"
       id="style1">
   <![CDATA[
    .str1 {stroke:#2B2A29;stroke-width:20;stroke-miterlimit:22.9256;stroke-opacity:0.400000}
    .str0 {stroke:#2B2A29;stroke-width:20;stroke-miterlimit:22.9256}
    .fil2 {fill:#FEFEFE}
    .fil0 {fill:#2B2A29}
    .fil4 {fill:#7C3D0E}
    .fil1 {fill:#F39500}
    .fil3 {fill:#FCC200;fill-opacity:0.301961}
    .fil5 {fill:#FCC200;fill-opacity:0.301961}
    .fil7 {fill:#2B2A29;fill-opacity:0.400000}
    .fil6 {fill:url(#id2)}
   ]]>
  </style><clipPath
       id="id0">
    <rect
   x="11025.72"
   y="9964.75"
   width="255.55"
   height="428.51001"
   id="rect1" />
   </clipPath><clipPath
       id="id1">
    <rect
   x="8917.0195"
   y="10012.43"
   width="304.23001"
   height="304.22"
   id="rect2" />
   </clipPath><linearGradient
       id="id2"
       gradientUnits="userSpaceOnUse"
       x1="12636.43"
       y1="11631.17"
       x2="5790.5801"
       y2="12442.52"
       gradientTransform="matrix(0.43712147,0,0,0.43712147,1512.5402,7258.8327)">
   <stop
   offset="0"
   style="stop-opacity:1; stop-color:#A83805"
   id="stop2" />
   <stop
   offset="1"
   style="stop-opacity:1; stop-color:#A83805"
   id="stop3" />
  </linearGradient><style
       id="style1-5">.cls-1{fill:#fff;stroke:#fff;stroke-linecap:round;stroke-linejoin:round;stroke-width:.09px}</style></defs><g
     inkscape:label="Layer 1"
     inkscape:groupmode="layer"
     id="layer1"
     transform="translate(-28.190216,-96.06378)"><g
       style="clip-rule:evenodd;fill-rule:evenodd;image-rendering:optimizeQuality;shape-rendering:geometricPrecision;text-rendering:geometricPrecision"
       id="g1"
       transform="matrix(0.01,0,0,0.01,0.54124478,-3.5602838)"><g
         id="Warstwa_x0020_1"
         inkscape:label="Warstwa 1"
         inkscape:groupmode="layer">
  <metadata
   id="CorelCorpID_0Corel-Layer" />
  <text
   xml:space="preserve"
   style="font-size:590.713px;font-family:'Noto Sans';-inkscape-font-specification:'Noto Sans, Normal';text-align:start;letter-spacing:-416.371px;writing-mode:lr-tb;direction:ltr;text-anchor:start;fill:#ffffff;fill-opacity:1;stroke-width:52.9166"
   x="7038.48"
   y="17281.586"
   id="text2"><tspan
     sodipodi:role="line"
     id="tspan2"
     style="font-style:italic;font-variant:normal;font-weight:900;font-stretch:normal;font-size:9451.44px;font-family:'Noto Sans';-inkscape-font-specification:'Noto Sans, Heavy Italic';font-variant-ligatures:normal;font-variant-caps:normal;font-variant-numeric:normal;font-variant-east-asian:normal;letter-spacing:-416.371px;fill:#ffffff;fill-opacity:1;stroke-width:52.9166"
     x="7038.48"
     y="17281.586">LUG</tspan></text>








  <g
   clip-path="url(#id0)"
   id="g10">

  </g>



  <g
   clip-path="url(#id1)"
   id="g11">

  </g>






 <g
   id="g3"
   transform="translate(9.4877264e-5,-1.7526734e-4)"><path
     class="fil0"
     d="m 6030.3348,9962.4066 c 81.698,0 365.9494,0.76 607.2361,132.1204 719.6593,391.813 578.9936,1852.651 911.3108,2557.571 287.9538,610.803 985.9537,984.205 1169.112,2087.15 162.4955,978.505 -587.8628,2006.991 -1754.6275,2442.39 -1265.7289,472.332 -2829.1244,233.069 -3209.7392,-1010.052 -339.6871,-1109.428 827.1038,-2793.263 945.2358,-3086.051 492.5835,-1220.859 245.7934,-1819.457 472.2355,-2496.126 178.5641,-533.594 692.5272,-627.0024 859.2365,-627.0024 z"
     id="path3"
     style="stroke-width:0.999998" /><path
     class="fil1"
     d="m 5371.2868,17233.162 c 85.2125,233.61 -310.2644,488.085 -454.2129,571.868 -177.3315,103.209 -616.3544,-166.303 -914.6155,-250.593 -549.265,-155.23 -1380.9935,-151.926 -1216.3779,-529.218 160.7121,-368.332 -114.1543,-779.886 26.7169,-1000.891 84.2333,-132.146 546.1876,-134.135 677.2585,-274.879 199.8519,-214.596 286.4107,-525.91 497.0552,-448.102 346.7203,128.081 1210.7084,1456.257 1384.1757,1931.815 z"
     id="path4"
     style="stroke-width:0.999998" /><path
     class="fil2"
     d="m 6473.0121,11091.426 c 253.8277,60.554 303.4017,219.5 303.4017,425.323 0,607.542 -343.1579,330.324 -730.9808,205.102 -53.8271,-17.38 -36.7007,-215.483 -17.1351,-279.919 60.126,-197.999 190.8822,-411.056 444.7142,-350.506 z"
     id="path5"
     style="stroke-width:0.999998" /><path
     class="fil2"
     d="m 5383.9021,11142.355 c 163.8594,-36.019 307.5587,246.418 285.3923,446.1 -22.1708,199.677 -253.8365,243.975 -331.7971,293.855 -77.9562,49.875 -208.5069,-207.782 -208.5069,-385.292 0,-177.511 91.0524,-318.649 254.9117,-354.663 z"
     id="path6"
     style="stroke-width:0.999998" /><path
     class="fil3"
     d="m 5274.2721,17004.066 c 80.3691,191.486 -292.6179,400.076 -428.3834,468.752 -167.2471,84.6 -581.3104,-136.317 -862.6112,-205.408 -518.037,-127.242 -1302.4733,-124.531 -1147.2165,-433.791 151.5718,-301.915 -107.6674,-639.259 25.1956,-820.415 79.4469,-108.315 515.1346,-109.949 638.7525,-225.31 188.4868,-175.902 270.1236,-431.085 468.791,-367.305 327.0062,104.984 1141.8705,1193.67 1305.472,1583.477 z"
     id="path7"
     style="stroke-width:0.999998" /><path
     class="fil2"
     d="m 7615.9318,14822.301 c 0,189.213 16.0336,619.31 -74.5292,603.752 -115.5138,-19.845 -268.1566,22.123 -325.4239,151.655 -62.0756,140.399 71.9896,340.61 11.8723,562.331 -98.0595,361.617 -455.1484,743.731 -1108.1467,743.731 -116.2262,0 -816.639,-31.005 -1065.1819,-264.782 -124.7239,-117.323 317.914,-250.431 204.8045,-370.014 -677.3329,-716.136 -979.4144,-561.194 -924.0136,-1404.511 54.3604,-827.449 917.5748,-1566.809 878.2513,-2477.871 -27.8839,-646.113 1364.8812,-764.289 1440.018,-21.358 66.0622,653.191 962.3492,1677.498 962.3492,2477.067 z"
     id="path8"
     style="stroke-width:0.999998" /><path
     class="fil2"
     d="m 6487.6557,11089.078 c 253.8321,60.55 303.406,219.497 303.406,425.32 0,607.546 -343.1578,330.324 -730.9807,205.101 -53.8316,-17.38 -36.7008,-215.479 -17.1352,-279.915 60.1261,-198.003 190.8822,-411.06 444.7099,-350.506 z"
     id="path9"
     style="stroke-width:0.999998" /><ellipse
     class="fil0 str0"
     transform="rotate(21.40508)"
     rx="134.38216"
     ry="241.05472"
     id="ellipse9"
     cx="10180.093"
     cy="8477.4297" /><ellipse
     class="fil4"
     cx="6329.0371"
     cy="11703.612"
     rx="105.28944"
     ry="90.04702"
     id="ellipse10"
     style="stroke-width:0.999998" /><path
     class="fil2"
     d="m 5387.4953,11146.822 c 163.8593,-36.019 307.5586,246.419 285.3922,446.1 -22.1708,199.677 -253.8364,243.975 -331.7927,293.855 -77.9606,49.876 -208.5069,-207.781 -208.5069,-385.292 0,-177.511 91.048,-318.648 254.9074,-354.663 z"
     id="path10"
     style="stroke-width:0.999998" /><ellipse
     class="fil0"
     cx="5442.7476"
     cy="11579.089"
     rx="125.40578"
     ry="257.68747"
     id="ellipse11"
     style="stroke-width:0.999998" /><path
     class="fil4"
     d="m 5519.8163,11649.145 c 64.0602,30.563 -13.8742,133.838 -44.4159,158.041 -118.5779,93.955 -66.2851,-210.784 44.4159,-158.041 z"
     id="path11"
     style="stroke-width:0.999998" /><path
     class="fil1"
     d="m 6728.479,11969.415 c 152.7478,123.447 -289.4094,731.68 -943.2513,731.68 -405.5219,0 -696.7891,-464.009 -659.4545,-590.184 43.8913,-148.346 344.644,-458.637 680.9565,-427.57 314.2029,29.029 687.8369,97.041 921.7493,286.074 z"
     id="path12"
     style="stroke-width:0.999998" /><path
     class="fil1"
     d="m 8680.4624,15571.593 c 187.4334,38.405 138.5501,346.755 292.4605,570.186 182.2884,264.637 507.074,415.733 364.7298,560.337 -180.9202,183.788 -487.8057,314.286 -727.9209,519.51 -323.1551,276.204 -593.3574,638.119 -1065.8857,620.756 -809.0944,-29.724 -405.4389,-717.692 -404.1888,-1210.433 0.5464,-217.21 -41.3385,-748.361 74.7216,-1050.503 34.432,-89.636 93.2467,-158.251 158.1068,-193.615 76.8285,-41.893 144.8577,-36.639 192.3422,30.826 61.1883,86.944 12.2787,322.281 142.9038,452.998 117.0086,117.092 253.0102,72.824 434.5293,84.054 308.2362,19.072 306.138,-431.662 538.2014,-384.116 z"
     id="path13"
     style="stroke-width:0.999998" /><path
     class="fil5"
     d="m 8611.5939,15697.825 c 167.011,30.786 123.4519,277.974 260.5944,457.085 162.4256,212.144 451.8262,333.265 324.9911,449.186 -161.2104,147.336 -434.6605,251.948 -648.6096,416.463 -287.9451,221.415 -528.7116,511.541 -949.7557,497.623 -720.9401,-23.827 -361.2634,-575.326 -360.1487,-970.331 0.848,-300.949 -14.9321,-876.507 142.5321,-933.608 303.4061,-110.028 112.843,209.543 363.6458,324.125 131.5254,60.092 225.4454,58.378 387.1891,67.378 274.6521,15.287 272.7812,-346.034 479.5615,-307.921 z"
     id="path14"
     style="stroke-width:0.999998" /><path
     class="fil6"
     d="m 5865.54,12517.596 c 397.1074,0 791.0631,-403.424 791.0631,-371.291 0,32.133 -360.7082,465.49 -757.8156,465.49 -397.1117,0 -721.7968,-314.207 -721.7968,-346.34 0,-32.132 291.442,252.141 688.5493,252.141 z"
     id="path15"
     style="fill:url(#id2);stroke-width:0.999998" /><path
     class="fil7 str1"
     d="m 5720.6518,11887.293 c 13.1092,0 8.3402,-22.385 16.8729,-31.643 8.4014,-9.132 30.2269,-5.067 30.2269,-18.928 0,-51.987 -37.623,-65.157 -75.7881,-37.059 -36.6439,27.014 -11.1685,75.784 18.1974,85.798 3.4751,1.185 7.0026,1.832 10.4909,1.832 z"
     id="path16" /><path
     class="fil7 str1"
     d="m 6003.4038,11884.312 c -13.1049,0 -8.3359,-22.381 -16.8685,-31.644 -8.4015,-9.127 -30.2313,-5.061 -30.2313,-18.923 0,-51.991 37.623,-65.161 75.7881,-37.059 36.6482,27.01 11.1684,75.784 -18.193,85.798 -3.4751,1.181 -7.0071,1.828 -10.4953,1.828 z"
     id="path17" /><g
     id="g2"
     transform="matrix(17.661136,0,0,17.660291,4894.1478,13341.245)"
     style="fill:#880000;fill-opacity:1;stroke-width:1.49815"><path
       class="cls-1"
       d="M 16.23,4.47 V 78.35 H 4 l 12.2,31.87 v 44.91 h 36.18 v -43.64 c 2.22,-1.9 8.08,-2.38 12.21,4.19 4.6,6.74 16.58,34.88 18.39,39.41 h 43.29 c 0,0 -35.65,-60.19 -41.55,-67.22 -7.45,-8.88 -18.55,-9.2 -31.24,-9.35 v -74 H 16.23 Z"
       transform="translate(-3.98,-4.42)"
       id="path1"
       style="fill:#880000;fill-opacity:1" /><path
       class="cls-1"
       d="m 57.77,4.47 v 34.41 c 0,0 20.93,-2.06 24.57,14.59 3,13.6 -7.77,22.67 -7.77,22.67 a 25.91,25.91 0 0 1 14.28,9.51 C 94.72,93.39 99,101.83 99,101.51 109,96.28 123.84,71.17 117.71,45.7 107.65,4.38 72.83,4.47 57.77,4.47 Z"
       transform="translate(-3.98,-4.42)"
       id="path2"
       style="fill:#880000;fill-opacity:1" /></g></g></g></g></g></svg>
